<svg width="256" height="256" viewBox="0 0 256 256" fill="none" xmlns="http://www.w3.org/2000/svg">
<path d="M128 9.57417C128.218 9.45908 128.437 9.34398 128.667 9.21737C130.451 8.27356 132.235 7.32976 134.019 6.37444C140.534 2.92149 147.359 0.953304 154.173 0.331772C179.242 -1.95869 203.942 13.9249 210.699 40.2249C211.044 41.5715 211.389 42.9182 211.734 44.2648C213.818 44.8979 215.89 45.5309 217.973 46.164C218.065 46.1985 218.157 46.2215 218.261 46.256C247.968 55.3603 262.977 87.3347 252.848 115.304C251.731 118.4 250.304 121.45 248.543 124.408C247.841 125.605 247.139 126.802 246.425 127.999C247.496 130.002 248.555 132.016 249.625 134.019C265.808 164.508 249.211 202.111 215.774 210.697C214.428 211.042 213.081 211.388 211.734 211.733C211.078 213.908 210.411 216.084 209.743 218.259C204.713 234.672 192.697 246.608 178.241 252.282C163.634 258.014 146.519 257.381 131.591 248.541C130.394 247.839 129.197 247.137 128 246.424C127.608 246.631 127.217 246.838 126.837 247.045C125.214 247.897 123.603 248.76 121.98 249.623C106.66 257.761 89.545 257.611 75.2151 251.212C61.0234 244.881 49.571 232.416 45.3008 215.773C44.9555 214.426 44.6102 213.08 44.2649 211.733C42.0895 211.077 39.9142 210.409 37.7388 209.742C4.73982 199.636 -10.1195 161.308 7.45616 131.59C8.15827 130.393 8.86037 129.196 9.57399 127.999C8.50357 125.996 7.44465 123.982 6.37423 121.979C4.76284 118.941 3.47373 115.833 2.49538 112.679C-6.33274 84.2846 10.115 53.0353 40.2249 45.3007C40.317 45.2777 40.4091 45.2432 40.5127 45.2202C41.7558 44.8979 43.0103 44.5756 44.2649 44.2648C44.921 42.0895 45.5886 39.9141 46.2561 37.7388C54.0714 12.233 78.7372 -2.43059 103.253 0.331772C110.459 1.13746 117.664 3.46245 124.409 7.45636C125.398 8.03186 126.388 8.61886 127.39 9.20586C127.585 9.33247 127.793 9.44757 128 9.57417Z" fill="#7252A4"/>
</svg>
